<?xml version="1.0" encoding="UTF-8"?>
<svg xmlns="http://www.w3.org/2000/svg" id="Layer_2" data-name="Layer 2" viewBox="0 0 111.73 111.84">
  <defs>
    <style>
      .cls-1 {
        fill: #6b34fd;
      }
    </style>
  </defs>
  <g id="Layer_2-2" data-name="Layer 2">
    <g id="Layer_1-2" data-name="Layer 1">
      <path class="cls-1" d="M101.68,0c2.98.13,5.78,1.54,7.7,3.86,1.7,2.07,2.53,4.71,2.31,7.45-.21,2.63-1.36,5.11-3.23,6.99l-51.27,47.37c-.43.43-.69,1.1-.69,1.81s.27,1.36.75,1.86l27.98,24.1c2.09,2.08,3.28,4.88,3.32,7.77.04,3.03-1.12,5.8-3.26,7.79-.99.92-2.14,1.64-3.4,2.12-1.23.48-2.51.71-3.82.71s-2.71-.26-3.98-.77c-1.31-.54-2.49-1.31-3.5-2.32l-.13-.12-24.38-28.26c-.91-.88-2.65-.88-3.64.08l-24.36,28.24c-1.06,1.07-2.25,1.86-3.56,2.4-2.47,1-5.31,1.03-7.8.07-1.26-.49-2.4-1.2-3.4-2.13C1.17,107.02.01,104.26.05,101.23c.05-2.87,1.22-5.69,3.24-7.71l.13-.12,28.01-24.13c.41-.42.68-1.09.68-1.79,0-.7-.27-1.36-.76-1.86L3.34,41.5c-1.95-1.94-3.1-4.42-3.3-7.06-.21-2.74.61-5.38,2.31-7.45,1.91-2.31,4.72-3.72,7.71-3.86,2.98-.14,5.87.98,7.97,3.09l.13.14,24.37,28.26c.92.88,2.71.85,3.68-.12L93.63,3.19C95.7,1.13,98.41,0,101.19,0c.15,0,.33,0,.49,0Z"></path>
    </g>
  </g>
</svg>
