<svg xmlns="http://www.w3.org/2000/svg" id="software-house" enable-background="new 0 0 135 135" viewBox="0 0 135 135">
  <rect width="128" height="3.16" x="3.5" y="128.34" fill="#7a8490"></rect>
  <rect width="1.748" height="10.349" x="19.281" y="10.814" fill="#44433f"></rect>
  <rect width="1.748" height="10.349" x="39.05" y="10.814" fill="#44433f"></rect>
  <rect width="1.762" height="10.349" x="45.64" y="10.814" fill="#44433f"></rect>
  <rect width="1.748" height="10.349" x="25.871" y="10.814" fill="#44433f"></rect>
  <rect width="1.748" height="10.349" x="32.461" y="10.814" fill="#44433f"></rect>
  <rect width="32.653" height="2.608" x="17.015" y="19.855" fill="#595854"></rect>
  <rect width="32.653" height="2.608" x="17.015" y="9.511" fill="#595854"></rect>
  <rect width="29.65" height="105.877" x="18.517" y="22.463" fill="#ccc"></rect>
  <rect width="29.65" height=".836" x="18.517" y="113.362" fill="#2c2c34" opacity=".08"></rect>
  <rect width="29.65" height=".836" x="18.517" y="90.063" fill="#2c2c34" opacity=".08"></rect>
  <rect width="29.65" height=".836" x="18.517" y="66.763" fill="#2c2c34" opacity=".08"></rect>
  <rect width="29.65" height=".836" x="18.517" y="43.464" fill="#2c2c34" opacity=".08"></rect>
  <rect width="33.498" height="2.634" x="16.592" y="110.728" fill="#dbdbdb"></rect>
  <rect width="33.498" height="2.634" x="16.592" y="87.428" fill="#dbdbdb"></rect>
  <rect width="33.498" height="2.634" x="16.592" y="64.129" fill="#dbdbdb"></rect>
  <rect width="33.498" height="2.634" x="16.592" y="40.829" fill="#dbdbdb"></rect>
  <rect width="68.716" height="111.888" x="48.166" y="16.452" fill="#ccc"></rect>
  <rect width="37.409" height="9.814" x="63.82" y="93.415" fill="#ab5033"></rect>
  <path fill="#fff" d="M68.532959 97.2299576c-.0796051.0654526-.1194077.1518326-.1194077.2597427 0 .1079025.0483475.1936951.1456451.2573776.09729.0633926.3219452.1385727.6736755.2252502s.6250305.2166977.8196182.3897552c.1942902.1733627.2915802.4263229.2915802.7585907s-.1247101.6020355-.3738403.8089981c-.2494202.2066727-.5772705.3101578-.9838333.3101578-.586998 0-1.1156235-.2175827-1.5858688-.6524506l.493248-.6046829c.3994827.3502502.7689056.5250854 1.1085434.5250854.1518326 0 .2712402-.0324326.3579178-.0981827.0866776-.065155.1300201-.1536026.1300201-.2650452s-.0459976-.1996002-.1379776-.2653427c-.0919876-.065155-.2741928-.1314926-.5463181-.1987152-.4313278-.1026001-.7470856-.2361526-.9466858-.4003754-.1998901-.1645126-.2998352-.4224854-.2998352-.7745056 0-.3517227.1264801-.6232605.3794403-.8140106.2526627-.1910477.5681305-.2865753.9466858-.2865753.2473602 0 .4950104.0424576.7423706.1273651.2476578.0849152.4631729.2052002.6471405.3605728l-.4189453.6046906c-.3216553-.2438202-.6542206-.3658829-.9971008-.3658829C68.7210541 97.1317749 68.6122665 97.164505 68.532959 97.2299576zM74.1679611 99.6855621c-.3747253.3658752-.8361282.5489655-1.3842087.5489655s-1.0094833-.1830902-1.3844986-.5489655c-.3747253-.3658829-.5619431-.8210907-.5619431-1.3656387 0-.5445404.1872177-1.0000458.5619431-1.3659286.3750153-.3658752.8364182-.5489655 1.3844986-.5489655s1.0094833.1830902 1.3842087.5489655c.3747177.3658829.562233.8213882.562233 1.3659286C74.7301941 98.8644714 74.5426788 99.3196793 74.1679611 99.6855621zM73.8869934 98.3225784c0-.3307953-.1061401-.612648-.3184128-.8461456-.2119827-.2332077-.4729004-.3499603-.7821732-.3499603-.3095703 0-.5701981.1167526-.7824707.3499603-.2119751.2334976-.3181152.5153503-.3181152.8461456 0 .3304977.1061401.611763.3181152.8432007.2122726.2317352.4729004.3473053.7824707.3473053.3092728 0 .5701904-.1155701.7821732-.3473053C73.7808533 98.9343414 73.8869934 98.6530762 73.8869934 98.3225784zM77.9762192 96.4899445v.7267456h-1.7182388v.8007431h1.6336288v.7267456h-1.6336288v1.4531937h-.8275757v-3.707428H77.9762192zM80.2463837 97.2060776v2.9912949h-.8272858v-2.9912949H78.368927v-.7161331h2.9276199v.7161331H80.2463837zM83.057251 98.6221237l.657753-2.1321793h.8644333l.6524429 2.1321793.7370682-2.1321793h.8965607l-1.294281 3.707428h-.615303l-.8113556-2.5776596-.8063507 2.5776596h-.6150055l-1.2942886-3.707428h.8962708L83.057251 98.6221237zM89.7509689 100.1973724l-.3446503-.8007431h-1.5540237l-.3449478.8007431h-.8803482l1.6017914-3.707428h.8010406l1.6017838 3.707428H89.7509689zM88.631813 97.5931778l-.4667053 1.0767059h.9281082L88.631813 97.5931778zM94.0681076 97.7205429c0 .5940781-.2349777.9776459-.7052231 1.1507034l.9387207 1.3261261h-1.0183258l-.8219757-1.1828384h-.5728455v1.1828384h-.8275757v-3.707428h1.4054337c.5763855 0 .9873734.09729 1.2332535.2915802C93.9454575 96.9761124 94.0681076 97.2892151 94.0681076 97.7205429zM93.0710068 98.1607208c.1026001-.0919876.1539001-.2379227.1539001-.4375229 0-.1998901-.0530701-.3369827-.1592102-.4112778-.1058426-.0740051-.2915802-.1111526-.5569229-.1111526h-.6203156v1.0979309h.604393C92.7758865 98.2986984 92.9684067 98.2527084 93.0710068 98.1607208zM97.5900955 96.4899445v.7373581h-1.8456116v.7635956h1.6598663v.7055206h-1.6598663v.7689056h1.9039841v.732048h-2.7315598v-3.707428H97.5900955z"></path>
  <rect width="38.784" height="1.145" x="63.133" y="92.843" fill="#c4644b"></rect>
  <rect width="38.784" height="1.145" x="63.133" y="102.657" fill="#c4644b"></rect>
  <g>
    <rect width="1.762" height="10.349" x="61.867" y="4.804" fill="#44433f"></rect>
    <rect width="1.762" height="10.349" x="55.278" y="4.804" fill="#44433f"></rect>
    <rect width="1.762" height="10.349" x="75.047" y="4.804" fill="#44433f"></rect>
    <rect width="1.748" height="10.349" x="88.24" y="4.804" fill="#44433f"></rect>
    <rect width="1.748" height="10.349" x="108.009" y="4.804" fill="#44433f"></rect>
    <rect width="1.762" height="10.349" x="114.599" y="4.804" fill="#44433f"></rect>
    <rect width="1.748" height="10.349" x="94.83" y="4.804" fill="#44433f"></rect>
    <rect width="1.748" height="10.349" x="101.42" y="4.804" fill="#44433f"></rect>
    <rect width="1.762" height="10.349" x="68.457" y="4.804" fill="#44433f"></rect>
    <rect width="1.748" height="10.349" x="48.688" y="4.804" fill="#44433f"></rect>
    <rect width="1.748" height="10.349" x="81.65" y="4.804" fill="#44433f"></rect>
    <rect width="71.766" height="2.608" x="46.641" y="13.844" fill="#595854"></rect>
    <rect width="71.766" height="2.608" x="46.641" y="3.5" fill="#595854"></rect>
  </g>
  <g>
    <rect width="11.431" height="13.291" x="20.946" y="97.437" fill="#595854"></rect>
    <rect width="11.431" height="13.291" x="34.306" y="97.437" fill="#595854"></rect>
  </g>
  <g>
    <rect width="11.431" height="13.291" x="20.946" y="74.138" fill="#595854"></rect>
    <rect width="11.431" height="13.291" x="34.306" y="74.138" fill="#595854"></rect>
  </g>
  <g>
    <rect width="11.431" height="13.291" x="20.946" y="50.838" fill="#595854"></rect>
    <rect width="11.431" height="13.291" x="34.306" y="50.838" fill="#595854"></rect>
  </g>
  <g>
    <rect width="11.431" height="13.291" x="20.946" y="27.539" fill="#595854"></rect>
    <rect width="11.431" height="13.291" x="34.306" y="27.539" fill="#595854"></rect>
  </g>
  <rect width="2.473" height="105.877" x="45.693" y="22.463" fill="#2c2c34" opacity=".08"></rect>
  <g>
    <rect width="11.431" height="13.291" x="50.091" y="27.539" fill="#595854"></rect>
    <rect width="11.431" height="13.291" x="63.45" y="27.539" fill="#595854"></rect>
    <rect width="11.431" height="13.291" x="76.81" y="27.539" fill="#595854"></rect>
    <rect width="11.431" height="13.291" x="90.17" y="27.539" fill="#595854"></rect>
    <rect width="11.431" height="13.291" x="103.53" y="27.539" fill="#595854"></rect>
  </g>
  <g>
    <rect width="11.431" height="13.291" x="50.091" y="50.838" fill="#595854"></rect>
    <rect width="11.431" height="13.291" x="63.45" y="50.838" fill="#595854"></rect>
    <rect width="11.431" height="13.291" x="76.81" y="50.838" fill="#595854"></rect>
    <rect width="11.431" height="13.291" x="90.17" y="50.838" fill="#595854"></rect>
    <rect width="11.431" height="13.291" x="103.53" y="50.838" fill="#595854"></rect>
  </g>
  <g>
    <rect width="11.431" height="13.291" x="50.091" y="74.138" fill="#595854"></rect>
    <rect width="11.431" height="13.291" x="63.45" y="74.138" fill="#595854"></rect>
    <rect width="11.431" height="13.291" x="76.81" y="74.138" fill="#595854"></rect>
    <rect width="11.431" height="13.291" x="90.17" y="74.138" fill="#595854"></rect>
    <rect width="11.431" height="13.291" x="103.53" y="74.138" fill="#595854"></rect>
  </g>
  <g>
    <rect width="7.49" height="5.484" x="89.243" y="106.486" fill="#44433f"></rect>
    <rect width="7.49" height="5.484" x="68.316" y="106.486" fill="#44433f"></rect>
    <rect width="13.437" height="5.484" x="75.806" y="106.486" fill="#44433f"></rect>
    <rect width="7.49" height="16.369" x="89.243" y="111.97" fill="#44433f"></rect>
    <rect width="13.437" height="16.369" x="75.806" y="111.97" fill="#44433f"></rect>
    <rect width="7.49" height="16.369" x="68.316" y="111.97" fill="#44433f"></rect>
    <rect width="1.258" height="16.369" x="67.687" y="111.97" fill="#595854"></rect>
    <rect width=".477" height="16.369" x="82.286" y="111.97" fill="#595854"></rect>
    <polygon fill="#595854" points="97.362 128.34 96.104 128.34 96.104 112.6 68.945 112.6 68.945 128.34 67.687 128.34 67.687 111.341 97.362 111.341"></polygon>
    <polygon fill="#595854" points="97.362 111.97 96.104 111.97 96.104 107.116 68.945 107.116 68.945 111.97 67.687 111.97 67.687 105.857 97.362 105.857"></polygon>
    <rect width="1.258" height="16.369" x="75.177" y="111.97" fill="#595854"></rect>
    <rect width="1.258" height="16.369" x="88.614" y="111.97" fill="#595854"></rect>
    <rect width="1.258" height="5.484" x="81.895" y="106.486" fill="#595854"></rect>
    <rect width="1.258" height="5.484" x="88.614" y="106.486" fill="#595854"></rect>
    <polygon fill="#595854" points="67.687 111.97 68.945 111.97 68.945 107.116 96.104 107.116 96.104 111.97 97.362 111.97 97.362 105.857 67.687 105.857"></polygon>
    <rect width="1.258" height="5.484" x="75.177" y="106.486" fill="#595854"></rect>
    <g>
      <path fill="#f9f6c9" d="M84.1147385 121.7550583c0 .1695175-.1395645.3190689-.3190689.3190689-.1697617 0-.319313-.1495514-.319313-.3190689 0-.1300659.0699005-.2396698.1795044-.2893524v-1.9952774c-.1096039-.0599136-.1795044-.1597748-.1795044-.2893524 0-.1797485.1495514-.3195572.319313-.3195572.1795044 0 .3190689.1398087.3190689.3195572 0 .1295776-.0696564.2294388-.1695175.2893524v1.9952774C84.0450821 121.5153885 84.1147385 121.6249924 84.1147385 121.7550583zM81.7335281 121.7550583c0 .1695175-.1395645.3190689-.3190689.3190689-.1697693 0-.319313-.1495514-.319313-.3190689 0-.1300659.0699005-.2396698.1795044-.2893524v-1.9952774c-.1096039-.0599136-.1795044-.1597748-.1795044-.2893524 0-.1797485.1495438-.3195572.319313-.3195572.1795044 0 .3190689.1398087.3190689.3195572 0 .1295776-.069664.2294388-.1695251.2893524v1.9952774C81.6638641 121.5153885 81.7335281 121.6249924 81.7335281 121.7550583z"></path>
    </g>
  </g>
  <rect width="68.803" height=".836" x="48.123" y="43.464" fill="#2c2c34" opacity=".08"></rect>
  <rect width="68.803" height=".836" x="48.123" y="66.763" fill="#2c2c34" opacity=".08"></rect>
  <rect width="68.803" height=".836" x="48.123" y="90.063" fill="#2c2c34" opacity=".08"></rect>
  <rect width="71.563" height="2.634" x="46.743" y="40.829" fill="#dbdbdb"></rect>
  <rect width="71.563" height="2.634" x="46.743" y="64.129" fill="#dbdbdb"></rect>
  <rect width="71.563" height="2.634" x="46.743" y="87.428" fill="#dbdbdb"></rect>
</svg>
